<svg xmlns="http://www.w3.org/2000/svg" width="752.54968pt" height="225pt" viewBox="0 0 752.54967 225"><path fill="#727172" d="M282.06 118.571c26.12-8.413 39.435-29.618 39.493-29.792l.49-1.188.465 1.188c.092.174 13.405 21.379 39.527 29.792l.24.092 14.942-18.43-.49-.183c-12.275-4.577-40.747-19.261-39.941-57.035l.018-.382h-29.485v.382c.797 37.774-27.675 52.458-39.942 57.035l-.499.182 14.942 18.43zM414.983 43.737h-31.511v74.909h31.511V91.27h14.46V68.023h-14.46zM277.799 146.22v20.275c-1.03 12.45 4.95 15.98 4.95 15.98 5.764 4.468 17.55 3.854 17.55 3.854h114.244V130.207H277.799Zm31.536 2.036h73.871v20.016h-73.87zM721.046 143.114h-81.021v-30.14h61.254v-50.64c-.748-18.057-22.517-16.28-22.517-16.28h-68.795v22.019h59.809v25.764h-61.263v54.244c.2 11.894 8.497 17.06 21.096 17.06h91.437v21.188h31.504V43.737h-31.504zM558.19 42.682v32.243h-19.411v18.23h19.41v70.973h-82.458v-31.08h-31.52v34.186c.224 13.605 10.69 15.49 21.96 15.49H589.7V42.682h-1.105z" style="stroke-width:8.30565"/><path fill="#727172" d="M455.315 125.465c20.308-11.047 34.353-27.052 38.09-31.603 3.746 4.551 17.79 20.556 38.115 31.603l.897.49 17.035-18.156-.623-.324c-4.037-2.218-31.495-17.915-39.934-39.402h34.942v-19.76h-36.171v-9.302h-28.522v9.303h-36.18v19.759h34.81c-8.489 21.578-36.163 37.342-40 39.427l-.465.257 17.084 18.198z" style="stroke-width:8.30565"/><path fill="#0096e0" d="M70.05 144.128C149.46 82.882 194.9 94.55 202.815 97.334c9.178 3.455 18.414 10.124 21.736 22.931l.166-.971c.383-8.09-4.684-20.947-15.847-29.028l.034-.025-.89-.598-1.046-.689a45.256 45.256 0 0 0-2.666-1.545l-2.126-1.038-1.769-.772a44.164 44.164 0 0 0-3.455-1.221l-.125-.108-.357-.042c-4.568-1.403-9.792-2.234-15.73-2.334-16.238-.407-32.592 4.328-41.255 7.343-11.844 3.953-20.889 8.255-20.889 8.255-8.023 3.63-15.34 7.683-21.81 11.736 0 0-15.175 9.294-28.929 19.843-2.284 1.735-4.277 2.242-4.991 2.367-1.388.2-3.015.058-5.009-.723l-2.325-1.561c-1.728-1.728-2.816-3.854-2.816-6.18 0-1.927.15-5.183 3.995-7.874 0 0 53.513-39.75 97.367-47.981 6.155-1.047 12.218-1.512 17.998-1.205 33.497 1.82 46.064 15.955 50.258 22.89-4.344-15.248-15.366-23.305-20.366-26.719a74.838 74.838 0 0 0-2.915-1.719c-2.408-1.08-4.859-1.977-7.334-2.774v-.041C142.334 38.946 75.01 86.86 63.763 93.763l-2.31.98-1.27.208c-4.527.232-7.284-2.758-7.982-3.671-.997-1.603-1.802-3.339-1.802-5.349 0-1.827.747-3.588 1.594-5.025l1.105-1.379c8.48-7.558 63.38-42.035 107.01-42.633 31.628 1.977 40.914 9.344 48.571 17.426 0 0-5.116-8.746-12.425-15.141l-.19-.167-.715-.59c-2.185-1.669-6.188-4.119-6.404-4.268-3.413-1.803-7.433-3.514-7.799-3.68-11.23-4.061-30.498-8.098-58.081-.565-5.798 1.147-13.447 4.012-21.18 7.384 0 0-1.054.465-2.824 1.254l-1.412.648c-5.938 2.7-17.142 7.957-27.134 13.472v-.01c-.988.524-2.807.798-2.973.823-2.791.15-4.544-.88-4.544-.88-5.623-2.965-5.016-8.663-5.016-8.663 0-3.713 2.491-6.047 5.448-7.866 0 0 50.283-35.922 97.3-23.463 2.7.714 5.441 1.561 8.199 2.558C152.824 6.38 132.79 0 113.156 0 50.648 0 0 50.357 0 112.508 0 174.643 50.648 225 113.156 225c14.419 0 27.907-3.007 40.233-8.28 15.274-5.923 25.963-13.431 32.782-19.303h.018s9.552-7.74 16.753-18.322c2.865-4.045 4.734-7.816 5.905-11.188l.041-.091h-.009c1.437-4.236 1.82-7.89 1.711-10.822-.523-7.002-5.49-10.773-6.885-11.678l-.2-.142-.14-.083c-5.018-2.857-10.807-3.903-16.97-3.729l.019-.024-.291.042c-6.478.224-13.38 1.81-20.216 4.194-9.51 3.056-16.528 6.586-16.528 6.586-8.954 3.896-20.93 12.276-30.548 19.577-1.387 1.021-2.168 1.636-2.168 1.636-7.425 5.722-13.048 10.448-14.004 11.27l-.365.258c-5.457 3.206-9.983-.307-9.983-.307-2.957-1.96-3.564-5.416-3.721-6.387v-.731a9.53 9.53 0 0 1 1.204-4.676c.282-.582 1.636-2.176 2.757-3.356l.358-.266.54-.59c6.918-6.635 56.038-51.793 101.818-44.958 6.221.665 10.831 2.185 14.228 3.954l.432.182c.224.1 4.07 2.168 6.246 4.892a17.666 17.666 0 0 1 3.604 7.235l.224 1.121.092.598c.091.806.166 1.645.166 2.575 0 0 1.487-6.944-.44-13.024-.98-2.724-2.45-5.647-4.726-8.347-22.193-22.2-58.364-10.59-86.894 4.701v-.009c-1.262.474-5.44 2.924-10.14 5.773-1.488.888-2.933 1.777-4.345 2.64-6.17 3.838-11.91 7.484-11.91 7.484-6.088 3.754-18.621 13.63-21.47 15.88l-.581.458-.341.274c-1.163.805-2.533 1.378-2.666 1.437-.847.29-1.603.448-2.043.515l-.632.05c-4.377.023-6.61-2.584-6.61-2.584-2.02-2.25-2.634-4.028-2.634-6.636 0-1.769.54-3.397 1.553-4.784.2-.282 1.412-2.027 3.672-3.887m81.088 22.508c19.925-11.262 40.05-15.091 44.958-8.521 4.934 6.578-5.69 22.06-25.631 33.33-19.917 11.254-39.41 13.597-44.327 7.043-4.926-6.561 5.074-20.606 25-31.852" style="stroke-width:8.30565"/></svg>