<svg xmlns="http://www.w3.org/2000/svg" xml:space="preserve" width="1089.9135" height="400" viewBox="0 0 1089.9135 400"><path d="M-57.116 212.079c-3.741-3.762-8.254-5.612-13.406-5.612-5.313 0-9.657 1.85-13.402 5.612-3.74 3.597-5.619 7.95-5.619 13.082 0 5.015 1.88 9.527 5.619 13.262 3.745 3.606 8.09 5.454 13.402 5.454 5.152 0 9.665-1.848 13.406-5.454 3.745-3.735 5.614-8.247 5.614-13.262 0-5.132-1.869-9.485-5.614-13.082m26.503 51.295h-30.534v13.582h-18.722v-13.582h-31.209V248.88h16.715c-.492-.32-.943-.787-1.253-1.097-3.265-3.116-5.78-6.576-7.657-10.434-2.016-4.041-2.931-8.429-2.931-12.941 0-4.689.915-8.904 2.931-12.795 1.877-4.061 4.392-7.636 7.657-10.602 3.128-3.139 7.005-5.459 11.398-7.184 4.199-1.846 8.718-2.67 13.696-2.67 4.81 0 9.49.824 13.894 2.67 4.199 1.725 7.946 4.045 11.228 7.184 3.128 2.966 5.735 6.54 7.774 10.602 1.893 3.891 2.837 8.106 2.837 12.795 0 4.512-.944 8.9-2.837 12.94-2.039 3.859-4.646 7.32-7.774 10.435-.476.31-.952.777-1.26 1.097h16.047zm-36.923-109.626v27.006H-85.35v-42.14H5.251v15.134zm51.275 121.005v-26.355H-31.98v-15.74h15.718v-16.684H-31.98v-15.749h15.718v-26.66H.613v101.188zM119.491 274.754v-45.52H104.65v45.52H88.453v-83.416c-10.926-1.873-21.828-2.667-32.44-2.667H44.624v64.71h28.672v15.322H27.945v-95.32h27.608c12.149 0 23.205.801 32.9 2.696v-37.464h16.196v75.347h14.842v-75.347h16.526v136.139z" style="fill:#00448d;fill-opacity:1;fill-rule:nonzero;stroke:none;stroke-width:2.05115" transform="matrix(1.33333 0 0 -1.33333 148.103 575.476)"/><path d="M657.925 339.456H672.5l36.232 32.145h-50.808zM648.271 431.607l-32.144-28.516v-21.807h32.144z" style="fill:#d5b55d;fill-opacity:1;fill-rule:nonzero;stroke:none;stroke-width:1.53836" transform="matrix(1.77778 0 0 -1.77778 -170.057 767.301)"/><path d="m588.574 371.602-36.223-32.129 63.787-.012.005-63.77 32.128 28.494v67.417zM460.477 222.172c-3.177-2.807-6.804-4.343-11.015-4.343-4.2 0-7.842 1.536-10.859 4.343-3.184 3.035-4.681 6.554-4.681 10.644 0 4.081 1.497 7.592 4.681 10.652 3.017 2.806 6.658 4.318 10.86 4.318 4.21 0 7.837-1.512 11.014-4.318 3.018-3.06 4.538-6.57 4.538-10.652 0-4.09-1.52-7.609-4.538-10.644m34.46 40.348h-90.965v-11.35h25.836l-.232-.235c-2.567-2.345-4.683-5.141-6.078-8.186-1.518-3.27-2.21-6.66-2.21-10.184 0-3.503.692-6.908 2.21-10.164 1.395-3.036 3.51-5.872 6.078-8.188 2.586-2.35 5.503-4.22 9.027-5.614a30.322 30.322 0 0 1 10.86-1.992c3.735 0 7.35.708 10.874 1.992 3.394 1.394 6.435 3.263 9.003 5.614 2.58 2.316 4.57 5.152 6.088 8.188 1.397 3.256 2.22 6.661 2.22 10.164 0 3.525-.823 6.914-2.22 10.184-1.518 3.045-3.507 5.841-6.088 8.186l-.23.235h25.828zm-25.354 22.456c-9.035 4.675-13.458 9.697-13.458 15.08v.108h28.307v11.128h-69.935v-11.128h28.297v-.108c0-5.383-4.545-10.405-13.458-15.08-5.117-2.811-11.93-4.814-20.34-6.2l5.284-9.593c10.153 1.754 19.15 5.02 26.878 9.695 3.268 1.998 6.077 4.095 8.304 6.32 2.103-2.225 4.91-4.322 8.298-6.32 7.703-4.675 16.602-7.941 26.897-9.695l5.263 9.593c-8.42 1.386-15.189 3.389-20.337 6.2" style="fill:#00448d;fill-opacity:1;fill-rule:nonzero;stroke:none;stroke-width:1.53836" transform="matrix(1.77778 0 0 -1.77778 -170.057 767.301)"/><path d="M577.843 313.967V276.3c-5.372-.681-10.867-1.035-16.465-1.27a129.55 129.55 0 0 1 1.735 21.037v13.928h-49.469v-10.982h36.962V294.2c0-6.312-.587-12.873-1.633-19.527h-45.388v-11.108h23.501v-18.359h12.524v18.359h7.946c11.002 0 21.177.572 30.287 1.774v-9.261h-22.915v-10.735h22.915v-10.787h12.518v79.41zm-42.693-90.754v16.02h-12.84v-27.37h70.147v11.35z" style="fill:#00448d;fill-opacity:1;fill-rule:nonzero;stroke:none;stroke-width:1.53836" transform="matrix(1.77778 0 0 -1.77778 -170.057 767.301)"/><path d="M191.03 239.892v5.947h-30.597v15.207h30.597v15.839h17.049v-15.84h28.775V245.84H208.08v-5.947c.082-11.254 2.847-21.86 8.212-31.815 5.106-9.638 13.294-19.24 24.678-28.767l-10.67-10.97c-11.969 10.043-21.465 21.002-28.46 32.876a79.34 79.34 0 0 0-2.287 3.955 137.749 137.749 0 0 0-2.3-4.1c-7.593-12.695-17.325-23.743-29.218-33.188l-12.017 10.366c11.365 8.925 20.244 18.914 26.636 29.978 5.472 9.242 8.276 19.797 8.377 31.665m74.45 34.861v-47.35h20.54v-15.974h-20.54v-72.765h-16.762v136.09z" style="fill:#00448d;fill-opacity:1;fill-rule:nonzero;stroke:none;stroke-width:2.05115" transform="matrix(1.33333 0 0 -1.33333 148.103 575.476)"/></svg>