<svg width="196" height="50" viewBox="0 0 196 50" fill="none" xmlns="http://www.w3.org/2000/svg">
<path d="M81.2539 25.2276V26.7661H60.1328V25.2276H69.119V23.1146H64.1456C63.7121 23.1146 63.3365 22.965 63.0158 22.6693C62.6959 22.3729 62.5352 21.9919 62.5352 21.5276V17.8504H75.4158V15.7116H62.5352V14.1747H78.4674V19.4131H65.6361V20.8792C65.6361 21.1185 65.6793 21.2869 65.7679 21.3834C65.8558 21.4799 66.0117 21.5276 66.2368 21.5276H78.756V23.1146H72.2435V25.2276H81.2539ZM73.7693 30.5507C74.4498 31.2634 75.1901 31.8774 75.9913 32.3893C76.7926 32.8998 77.5814 33.3091 78.3592 33.6133C79.1354 33.9183 79.7485 34.1025 80.197 34.1668L79.3079 35.5122C78.8594 35.4644 78.2746 35.3436 77.5531 35.1516C76.8334 34.9603 76.0713 34.6875 75.2715 34.3354C74.4702 33.9826 73.6643 33.5458 72.8551 33.0252C72.0474 32.5046 71.3223 31.8914 70.6816 31.1866C70.041 31.8914 69.3197 32.5046 68.5184 33.0252C67.717 33.5458 66.9173 33.9826 66.116 34.3354C65.3148 34.6875 64.5533 34.9603 63.8344 35.1516C63.1131 35.3436 62.5195 35.4644 62.0554 35.5122L61.1655 34.1668C61.614 34.1025 62.2271 33.9183 63.0041 33.6133C63.7811 33.3091 64.5699 32.8966 65.3711 32.3768C66.1724 31.8546 66.9127 31.2446 67.5932 30.5397C68.2745 29.8349 68.7434 29.0477 68.9998 28.1837H72.3642C72.6199 29.0477 73.0888 29.8379 73.7693 30.5507Z" fill="#DA291C"/>
<path d="M92.619 27.3902C93.229 27.3902 93.7119 27.3746 94.0726 27.3423C94.4334 27.3102 94.75 27.1816 95.0229 26.9582V22.1769H90.6243V20.5901H95.0229V13.8157H98.0744V35.2974H95.0229V28.6157C94.7971 28.7443 94.4929 28.8406 94.1087 28.905C93.7244 28.9693 93.229 29.0014 92.619 29.0014H86.348C85.7255 29.0014 85.2221 28.8007 84.8457 28.3992C84.4694 27.9994 84.2812 27.5188 84.2812 26.9582V14.6555H93.0283V16.2659H87.3579V26.5976C87.3579 26.8382 87.4096 27.0295 87.5132 27.1753C87.6166 27.3181 87.8142 27.3902 88.1028 27.3902H92.619ZM100.212 13.8157H103.263V35.2974H100.212V13.8157Z" fill="#DA291C"/>
<path d="M118.786 21.817H117.129C117.096 22.7611 116.969 23.6556 116.745 24.4954C116.52 25.3351 116.188 26.0691 115.747 26.6931C115.307 27.3181 114.758 27.8144 114.101 28.1837C113.444 28.5514 112.683 28.7364 111.819 28.7364C110.905 28.7364 110.113 28.5452 109.44 28.1593C108.768 27.7744 108.209 27.2538 107.77 26.5976C107.33 25.9405 107.005 25.1792 106.797 24.3135C106.588 23.4503 106.484 22.5282 106.484 21.5521C106.484 20.5759 106.588 19.646 106.797 18.7646C107.005 17.8826 107.33 17.1182 107.77 16.4682C108.209 15.8213 108.768 15.3039 109.44 14.9204C110.113 14.5347 110.905 14.3417 111.819 14.3417C112.603 14.3417 113.304 14.4947 113.921 14.7997C114.538 15.1046 115.064 15.5202 115.495 16.0486C115.928 16.5771 116.271 17.1988 116.528 17.9117C116.786 18.6243 116.961 19.3967 117.057 20.2286H118.786V13.8157H121.814V35.2974H118.786V21.817ZM111.819 27.1495C112.155 27.1495 112.459 27.002 112.732 26.7064C113.003 26.4094 113.237 26.0079 113.428 25.5037C113.621 24.9996 113.768 24.4068 113.873 23.7263C113.977 23.0458 114.03 22.3212 114.03 21.5521C114.03 20.7664 113.977 20.0293 113.873 19.3409C113.768 18.6518 113.621 18.0544 113.428 17.5502C113.237 17.046 113.003 16.6494 112.732 16.3622C112.459 16.0731 112.155 15.9287 111.819 15.9287C111.466 15.9287 111.154 16.0731 110.881 16.3622C110.61 16.6494 110.377 17.046 110.185 17.5502C109.992 18.0544 109.848 18.6518 109.752 19.3409C109.657 20.0293 109.608 20.7664 109.608 21.5521C109.608 22.3212 109.657 23.0458 109.752 23.7263C109.848 24.4068 109.992 24.9996 110.185 25.5037C110.377 26.0079 110.61 26.4094 110.881 26.7064C111.154 27.002 111.466 27.1495 111.819 27.1495ZM123.497 13.8157H126.572V35.2974H123.497V13.8157Z" fill="#DA291C"/>
<path d="M136.493 14.3417C137.55 14.3417 138.475 14.5347 139.269 14.9204C140.061 15.3039 140.721 15.8213 141.251 16.4682C141.779 17.1182 142.171 17.8826 142.429 18.7646C142.684 19.646 142.813 20.5759 142.813 21.5521C142.813 22.5282 142.684 23.4503 142.429 24.3135C142.171 25.1792 141.779 25.9405 141.251 26.5975C140.721 27.2538 140.061 27.7744 139.269 28.1593C138.475 28.5452 137.55 28.7364 136.493 28.7364C135.436 28.7364 134.511 28.5452 133.718 28.1593C132.924 27.7744 132.264 27.2538 131.735 26.5975C131.207 25.9405 130.81 25.1792 130.545 24.3135C130.283 23.4503 130.148 22.5282 130.148 21.5521C130.148 20.5759 130.283 19.646 130.545 18.7646C130.81 17.8826 131.207 17.1182 131.735 16.4682C132.264 15.8213 132.924 15.3039 133.718 14.9204C134.511 14.5347 135.436 14.3417 136.493 14.3417ZM136.493 27.1495C136.973 27.1495 137.415 27.002 137.815 26.7064C138.215 26.4094 138.552 26.0079 138.823 25.5037C139.096 24.9996 139.308 24.4068 139.462 23.7263C139.612 23.0458 139.689 22.3212 139.689 21.5521C139.689 20.7664 139.612 20.0293 139.462 19.3409C139.308 18.6518 139.096 18.0544 138.823 17.5502C138.552 17.046 138.215 16.6494 137.815 16.3622C137.415 16.0731 136.973 15.9287 136.493 15.9287C135.996 15.9287 135.552 16.0731 135.16 16.3622C134.765 16.6494 134.433 17.046 134.15 17.5502C133.87 18.0544 133.653 18.6518 133.501 19.3409C133.349 20.0293 133.272 20.7664 133.272 21.5521C133.272 22.3212 133.349 23.0458 133.501 23.7263C133.653 24.4068 133.87 24.9996 134.15 25.5037C134.433 26.0079 134.765 26.4094 135.16 26.7064C135.552 27.002 135.996 27.1495 136.493 27.1495ZM146.129 13.8157H149.276V35.5123H146.129V13.8157Z" fill="#DA291C"/>
<path d="M168.429 26.0933H165.425V19.9894H163.719C163.67 20.8393 163.482 21.5763 163.153 22.2005C162.825 22.8254 162.412 23.342 161.915 23.7497C161.418 24.1598 160.868 24.4601 160.258 24.6515C159.649 24.8436 159.041 24.9385 158.432 24.9385C157.695 24.9385 157.002 24.8248 156.355 24.5918C155.706 24.3605 155.141 24.0132 154.66 23.5577C154.18 23.1013 153.799 22.5361 153.518 21.8633C153.239 21.1906 153.098 20.4215 153.098 19.5558C153.098 18.6439 153.247 17.8474 153.543 17.1667C153.839 16.4854 154.236 15.9202 154.732 15.4723C155.229 15.0246 155.796 14.6922 156.438 14.4752C157.079 14.2587 157.744 14.1513 158.432 14.1513C159.01 14.1513 159.577 14.2345 160.139 14.4029C160.698 14.5715 161.219 14.8287 161.701 15.1721C162.182 15.5171 162.594 15.9578 162.938 16.4941C163.283 17.0304 163.52 17.6677 163.647 18.4048H165.425V13.8157H168.429V26.0933ZM158.432 15.7358C158.08 15.7358 157.768 15.837 157.495 16.0361C157.223 16.2368 156.991 16.5145 156.798 16.8664C156.606 17.2178 156.463 17.6223 156.366 18.0787C156.27 18.5366 156.221 19.0289 156.221 19.5558C156.221 20.1022 156.275 20.6081 156.378 21.0715C156.482 21.5355 156.631 21.9355 156.822 22.271C157.015 22.6098 157.247 22.8731 157.52 23.0645C157.791 23.2574 158.097 23.3539 158.432 23.3539C158.787 23.3539 159.094 23.2574 159.358 23.0645C159.621 22.8731 159.847 22.6098 160.03 22.271C160.214 21.9355 160.355 21.5355 160.451 21.0715C160.546 20.6081 160.593 20.1022 160.593 19.5558C160.593 19.0289 160.546 18.5366 160.451 18.0787C160.355 17.6223 160.211 17.2178 160.018 16.8664C159.827 16.5145 159.598 16.2368 159.333 16.0361C159.069 15.837 158.77 15.7358 158.432 15.7358ZM173.187 27.2702V35.5123H159.323C158.649 35.5123 158.168 35.3437 157.88 35.0082C157.592 34.671 157.448 34.2312 157.448 33.687V27.2702H173.187ZM170.062 33.9261V28.8806H160.57V33.0622C160.57 33.3334 160.631 33.545 160.75 33.6979C160.871 33.8501 161.075 33.9261 161.363 33.9261H170.062ZM170.157 13.8157H173.189V26.0949H170.157V13.8157Z" fill="#DA291C"/>
<path d="M188.494 20.0616C188.494 20.7829 188.542 21.523 188.649 22.2859C188.752 23.0458 188.925 23.7905 189.165 24.5197C189.405 25.2481 189.726 25.9373 190.125 26.5857C190.526 27.2349 191.031 27.8003 191.641 28.2801L190.415 29.5777C190.157 29.4648 189.861 29.2532 189.524 28.9404C189.188 28.6282 188.856 28.2722 188.527 27.8723C188.199 27.4709 187.904 27.0664 187.639 26.6587C187.374 26.2486 187.186 25.8926 187.075 25.5891C186.979 25.9247 186.8 26.2854 186.545 26.6696C186.289 27.0531 185.993 27.4309 185.657 27.8003C185.32 28.168 184.972 28.4996 184.611 28.7968C184.25 29.0924 183.918 29.3127 183.614 29.4569C183.275 29.2821 182.933 29.0413 182.58 28.7364C182.229 28.4307 181.897 28.0981 181.583 27.7391C181.271 27.3776 180.998 27.0099 180.766 26.6343C180.534 26.2573 180.361 25.9084 180.25 25.5891C180.219 25.8621 180.078 26.2054 179.83 26.621C179.58 27.039 179.29 27.4513 178.952 27.859C178.615 28.2675 178.257 28.6369 177.884 28.9638C177.506 29.2931 177.173 29.4969 176.886 29.5777L175.637 28.2801C176.214 27.8465 176.697 27.3102 177.09 26.6696C177.482 26.0305 177.799 25.3351 178.041 24.5918C178.279 23.8462 178.451 23.0771 178.556 22.2859C178.658 21.4909 178.713 20.7264 178.713 19.9894V14.6068H181.787V19.9894C181.787 21.6884 181.931 23.1288 182.221 24.3135C182.508 25.5006 182.974 26.3968 183.614 27.0068C184.335 26.3482 184.82 25.4411 185.067 24.2782C185.317 23.1179 185.439 21.6884 185.439 19.9894V14.6068H188.494V20.0616ZM192.72 13.8157H195.894V35.2974H192.72V13.8157Z" fill="#DA291C"/>
<path d="M45.8349 14.7815L35.4031 4.28348C29.7548 -1.39854 20.4818 -1.43206 14.7949 4.20909L4.28762 14.6315C-1.39999 20.2727 -1.43341 29.538 4.21333 35.2209L14.645 45.7166C20.291 51.3986 29.5641 51.432 35.2533 45.7909L45.7605 35.3709C51.4475 29.7289 51.481 20.4637 45.8349 14.7815ZM18.8249 40.341C18.802 40.3426 18.7816 40.3425 18.7589 40.3424C17.9254 40.3393 17.2504 39.6869 17.2196 38.8565C17.2031 38.4416 17.3495 38.0494 17.6299 37.7455C17.9117 37.4422 18.2948 37.2656 18.7073 37.2514C19.559 37.2137 20.2802 37.8843 20.3141 38.739C20.3447 39.5899 19.6779 40.309 18.8249 40.341ZM37.4477 33.95C35.3114 37.3177 32.4989 39.6761 29.9245 40.2604C29.9165 40.2657 29.8874 40.2705 29.86 40.2751C29.3878 40.3595 28.9233 40.4033 28.4819 40.4018C26.8229 40.3957 25.6545 39.7588 24.8216 39.2046C24.0003 38.6576 23.2321 37.9271 22.5415 37.0355C18.1344 31.3398 17.8709 20.6943 17.8565 19.4977C17.8181 16.6647 18.2404 12.8291 20.4626 10.6385C21.5467 9.5715 22.9044 9.03383 24.4936 9.03961L24.7526 9.04049C26.3449 9.04627 27.7002 9.59375 28.7767 10.6685C30.9837 12.8735 31.3775 16.7137 31.3203 19.5464C31.2603 22.4975 30.6971 28.2136 27.6145 33.328C27.3644 33.745 26.9055 34.002 26.4186 34.0003C26.1685 33.9993 25.9234 33.931 25.7082 33.8016C25.0549 33.4073 24.8409 32.5542 25.2353 31.897C27.3933 28.3177 28.4435 24.3761 28.5424 19.4901C28.6091 16.2498 27.9946 13.813 26.8126 12.6319C26.2634 12.0842 25.5854 11.8151 24.7393 11.8121L24.4947 11.8112C23.6455 11.808 22.964 12.0724 22.411 12.616C21.2219 13.7902 20.5882 16.2224 20.633 19.4616C20.686 23.4534 21.6079 31.2912 24.7376 35.3381C25.2463 35.9915 25.7917 36.5173 26.362 36.8948C26.9126 37.2614 27.5332 37.622 28.503 37.6254C28.7664 37.6264 29.0488 37.5999 29.343 37.5477C31.1479 37.1222 33.4132 35.1271 35.1022 32.4658C35.3602 32.059 35.8017 31.8176 36.2815 31.8192C36.5418 31.8202 36.7963 31.8956 37.0178 32.036C37.3314 32.2348 37.549 32.5421 37.6293 32.9039C37.712 33.2648 37.6462 33.6378 37.4477 33.95Z" fill="#DA291C"/>
<path d="M45.8349 14.7815L35.4031 4.28348C29.7548 -1.39854 20.4818 -1.43206 14.7949 4.20909L4.28762 14.6315C-1.39999 20.2727 -1.43341 29.538 4.21333 35.2209L14.645 45.7166C20.291 51.3986 29.5641 51.432 35.2533 45.7909L45.7605 35.3709C51.4475 29.7289 51.481 20.4637 45.8349 14.7815ZM18.8249 40.341C18.802 40.3426 18.7816 40.3425 18.7589 40.3424C17.9254 40.3393 17.2504 39.6869 17.2196 38.8565C17.2031 38.4416 17.3495 38.0494 17.6299 37.7455C17.9117 37.4422 18.2948 37.2656 18.7073 37.2514C19.559 37.2137 20.2802 37.8843 20.3141 38.739C20.3447 39.5899 19.6779 40.309 18.8249 40.341ZM37.4477 33.95C35.3114 37.3177 32.4989 39.6761 29.9245 40.2604C29.9165 40.2657 29.8874 40.2705 29.86 40.2751C29.3878 40.3595 28.9233 40.4033 28.4819 40.4018C26.8229 40.3957 25.6545 39.7588 24.8216 39.2046C24.0003 38.6576 23.2321 37.9271 22.5415 37.0355C18.1344 31.3398 17.8709 20.6943 17.8565 19.4977C17.8181 16.6647 18.2404 12.8291 20.4626 10.6385C21.5467 9.5715 22.9044 9.03383 24.4936 9.03961L24.7526 9.04049C26.3449 9.04627 27.7002 9.59375 28.7767 10.6685C30.9837 12.8735 31.3775 16.7137 31.3203 19.5464C31.2603 22.4975 30.6971 28.2136 27.6145 33.328C27.3644 33.745 26.9055 34.002 26.4186 34.0003C26.1685 33.9993 25.9234 33.931 25.7082 33.8016C25.0549 33.4073 24.8409 32.5542 25.2353 31.897C27.3933 28.3177 28.4435 24.3761 28.5424 19.4901C28.6091 16.2498 27.9946 13.813 26.8126 12.6319C26.2634 12.0842 25.5854 11.8151 24.7393 11.8121L24.4947 11.8112C23.6455 11.808 22.964 12.0724 22.411 12.616C21.2219 13.7902 20.5882 16.2224 20.633 19.4616C20.686 23.4534 21.6079 31.2912 24.7376 35.3381C25.2463 35.9915 25.7917 36.5173 26.362 36.8948C26.9126 37.2614 27.5332 37.622 28.503 37.6254C28.7664 37.6264 29.0488 37.5999 29.343 37.5477C31.1479 37.1222 33.4132 35.1271 35.1022 32.4658C35.3602 32.059 35.8017 31.8176 36.2815 31.8192C36.5418 31.8202 36.7963 31.8956 37.0178 32.036C37.3314 32.2348 37.549 32.5421 37.6293 32.9039C37.712 33.2648 37.6462 33.6378 37.4477 33.95Z" fill="#DA291C"/>
</svg>
