<svg xmlns="http://www.w3.org/2000/svg" xml:space="preserve" width="530.37396" height="200.00021" viewBox="0 0 530.37395 200.00021"><path d="M114.754 47.154c-3.112 0-4.931 1.275-5.91 2.348-2.298 2.517-2.059 5.985-2.02 6.37l1.71 99.51.226.456c.76 1.545 1.266 3.843.781 4.496l-.45.598v4.482l1.895 6.625 9.74-3.648-1.939-2.414c-.76-.954.728-3.462 1.652-4.532l.545-.63.004-.846V54.527c0-5.41-3.726-7.373-6.234-7.373zM111.635 183.982l-.246 1.961c-.291 2.311.188 4.081 1.425 5.264 1.235 1.19 2.937 1.396 4.02 1.215l1.4-.233 2.346-8.207z" style="fill:#cb9f0d;fill-opacity:1;fill-rule:nonzero;stroke:none;stroke-width:3.23165"/><path d="M59.64 0c-1.893-.011-3.463.406-4.69 1.248v-.002c-1.673 1.141-2.102 2.614-2.214 3.172-.063.23-.125.522-.125.93 0 .5.101 1.125.414 1.82.99 2.197 3.598 4.03 7.967 5.594.424.122 30.754 9.273 54.604 29.238l.12.102.132.08c.378.239 37.154 23.802 37.154 71.207 0 .678-.001 1.356-.025 2.045-1.106 26.318-21.573 53.744-21.78 54.02 0 0-6.204 7.9-6.226 7.923-2.23 2.282-3.342 4.33-3.342 6.234 0 .12.004.24.012.35.103 1.4.816 2.404 1.453 2.889l1.011.752 1.17-.465c3.251-1.306 7.753-6.306 8.254-6.862l.649-.74-.094-.978c-.268-2.696 5.097-5.988 8.81-7.362l.737-.275.408-.678c6.783-11.304 16.473-28.958 16.57-29.133l.069-.132.049-.12c19.105-48.064-18.853-90.28-19.24-90.697C116.392 18.212 65.736 1.243 63.593.535l-.1-.031-.101-.022C62.029.167 60.777.007 59.64 0ZM122.12 191.193l-11.759 2.926 5.881 5.881Z" style="fill:#cb9f0d;fill-opacity:1;fill-rule:nonzero;stroke:none;stroke-width:3.23165"/><path d="M374.237 400.375h-8.852v31.891h8.852zm-9.484-9.133h-21.848v-11.73h21.848zm9.484 5.34v-22.48h-34.211c-4.006 0-6.605 2.528-6.605 6.323v16.157zm-44.468 19.6c0-5.06 2.668-9.064 5.761-9.064 3.09 0 5.759 4.004 5.759 9.064 0 5.056-2.669 9.13-5.759 9.13-3.093 0-5.761-4.074-5.761-9.13m32.453-15.807h-8.851v13.558H350c-1.055-6.883-7.165-12.155-14.47-12.155-8.078 0-14.683 6.464-14.683 14.404 0 8.006 6.605 14.54 14.683 14.54 7.024 0 12.855-4.917 14.329-11.382h3.512v12.926h8.851zM431.002 432.267V374.1h-9.484v23.816c-2.53-1.336-6.042-2.317-10.046-2.317H391.24c-3.934 0-6.464 2.387-6.464 6.18v28.593h28.873v-5.34h-19.39v-24.026h17.774c3.863 0 7.237.562 9.484 1.406v29.855zM492.265 400.375h-8.852v31.891h8.852zm-9.484-9.133h-21.848v-11.73h21.848zm9.484 5.34v-22.48h-34.213c-4.004 0-6.603 2.528-6.603 6.323v16.157zm-44.468 19.6c0-5.06 2.668-9.064 5.759-9.064 3.092 0 5.76 4.004 5.76 9.064 0 5.056-2.668 9.13-5.76 9.13-3.09 0-5.76-4.074-5.76-9.13m32.454-15.807h-8.85v13.558h-3.372c-1.055-6.883-7.167-12.155-14.472-12.155-8.079 0-14.68 6.464-14.68 14.404 0 8.006 6.601 14.54 14.68 14.54 7.026 0 12.855-4.917 14.331-11.382h3.512v12.926h8.851z" style="fill:#231916;fill-opacity:1;fill-rule:nonzero;stroke:none;stroke-width:2.42374" transform="matrix(1.33333 0 0 -1.33333 -125.98 647.568)"/><path d="M236.575 433.85h17.875l13.51-40.975h.16l12.78 40.976h17.878v-59.585h-11.891v42.226h-.165l-14.152-42.226h-9.787l-14.155 41.809h-.162v-41.81h-11.89zM94.484 433.85h17.875l13.51-40.975h.16l12.78 40.976h17.878v-59.585h-11.89v42.226h-.166l-14.152-42.226h-9.787l-14.154 41.809h-.163v-41.81h-11.89Z" style="fill:#004098;fill-opacity:1;fill-rule:nonzero;stroke:none;stroke-width:2.42374" transform="matrix(1.33333 0 0 -1.33333 -125.98 647.568)"/></svg>